<?xml version="1.0" standalone="no"?><!DOCTYPE svg PUBLIC "-//W3C//DTD SVG 1.1//EN" "http://www.w3.org/Graphics/SVG/1.1/DTD/svg11.dtd"><svg t="1541061775414" class="icon" style="" viewBox="0 0 1024 1024" version="1.1" xmlns="http://www.w3.org/2000/svg" p-id="10288" xmlns:xlink="http://www.w3.org/1999/xlink" width="200" height="200"><defs><style type="text/css"></style></defs><path d="M921.4 752.2V804c0 16.6-1.8 31-5.4 43.2-3.6 12.2-10 22-19.4 29.2-9.4 7.2-23.4 10.8-42 10.8V954c0 18.8-6.6 34.8-20 48-13.4 13.4-29.4 20-48 20-18.8 0-34.6-6.6-47.4-20-13-13.4-19.4-29.4-19.4-48v-67h-406V954c0 18.8-6.4 34.8-19.4 48-13 13.4-28.8 20-47.4 20-18.8 0-34.8-6.6-48-20-13.4-13.4-20-29.4-20-48v-67c-18 0-31.6-3.6-41-10.8-9.4-7.2-15.8-17-19.4-29.2-3.6-12.2-5.6-26.4-6-42.6-0.4-16.2-0.6-33.6-0.6-52.4V144.6c0-18.8 3.6-36.2 10.8-52.4 7.2-16 16.8-30.4 29.2-42.6 12.2-12.2 26.4-22 42.6-29.2 16.2-7.2 33.6-10.8 52.4-10.8h539.6c18.8 0 36.2 3.6 52.4 10.8 16.2 7.2 30.4 17 42.6 29.2 12.2 12.2 22 26.4 29.2 42.6 7.2 16.2 10.8 33.6 10.8 52.4v607.6h-0.2zM379.6 76.6c-9.4 0-17.2 3.2-23.8 9.8-6.4 6.4-9.8 14.4-9.8 23.8 0 10 3.2 18.4 9.8 24.8 6.4 6.4 14.4 9.8 23.8 9.8h274.2c9.4 0 17.2-3.2 23.8-9.8 6.4-6.4 9.8-14.8 9.8-24.8 0-9.4-3.2-17.2-9.8-23.8-6.4-6.4-14.4-9.8-23.8-9.8H379.6z m-101.4 686.4c13.6 0 25.4-4.8 35-14.6 9.8-9.8 14.6-21.4 14.6-35 0-13.6-4.8-25.4-14.6-35-9.8-9.8-21.4-14.6-35-14.6-14.4 0-26.2 4.8-35.6 14.6-9.4 9.8-14 21.4-14 35 0 13.6 4.6 25.4 14 35 9.4 9.8 21.2 14.6 35.6 14.6z m472.6-2.2c13 0 24-4.6 33-14s13.4-20.6 13.4-33.4c0-13-4.4-24.2-13.4-33.4-9-9.4-20-14-33-14-13.6 0-25 4.6-34 14s-13.4 20.6-13.4 33.4c0 13 4.4 24.2 13.4 33.4 9 9.4 20.4 14 34 14z m103.6-549.2H179v269.8h675.6V211.6h-0.2z" fill="" p-id="10289"></path></svg>