<?xml version="1.0" standalone="no"?><!DOCTYPE svg PUBLIC "-//W3C//DTD SVG 1.1//EN" "http://www.w3.org/Graphics/SVG/1.1/DTD/svg11.dtd"><svg t="1543312718851" class="icon" style="" viewBox="0 0 1024 1024" version="1.1" xmlns="http://www.w3.org/2000/svg" p-id="6147" xmlns:xlink="http://www.w3.org/1999/xlink" width="200" height="200"><defs><style type="text/css"></style></defs><path d="M498.9504 326.7392c-19.744 0-35.776 16.0384-35.776 35.776l0 221.5616c0 0.2368-0.2432 0.3648-0.2432 0.6144 0 19.7376 16.032 35.776 35.776 35.776l146.1184 0c19.7376 0 35.7696-16.0384 35.7696-35.776s-16.032-35.7632-35.7696-35.7632L534.72 548.928 534.72 362.5152C534.72 342.7776 518.7584 326.7392 498.9504 326.7392zM512 147.2c-144.6208 0-269.6832 83.456-329.8368 204.8l88.6464 0C323.1744 274.7648 411.6544 224 512 224c160.8256 0 291.2 130.3744 291.2 291.2S672.8256 806.4 512 806.4c-98.9376 0-186.2912-49.3824-238.9184-124.8l-89.28 0C244.5568 801.2032 368.6656 883.2 512 883.2c203.2448 0 368-164.7552 368-368C880 311.9616 715.2448 147.2 512 147.2zM129.0304 351.2 239.5456 478.1952 350.0544 351.2Z" p-id="6148"></path></svg>